<?xml version="1.0" encoding="utf-8"?>
<!-- Generator: Adobe Illustrator 16.0.4, SVG Export Plug-In . SVG Version: 6.00 Build 0)  -->
<!DOCTYPE svg PUBLIC "-//W3C//DTD SVG 1.1//EN" "http://www.w3.org/Graphics/SVG/1.1/DTD/svg11.dtd">
<svg version="1.1" id="Layer_1" xmlns="http://www.w3.org/2000/svg" xmlns:xlink="http://www.w3.org/1999/xlink" x="0px" y="0px"
	 width="331.842px" height="164.179px" viewBox="0 0 331.842 164.179" enable-background="new 0 0 331.842 164.179"
	 xml:space="preserve">
<g>
	<linearGradient id="SVGID_1_" gradientUnits="userSpaceOnUse" x1="165.9214" y1="164.3857" x2="165.9214" y2="0.2334">
		<stop  offset="0" style="stop-color:#3261AD"/>
		<stop  offset="1" style="stop-color:#36B0E5"/>
	</linearGradient>
	<polyline fill-rule="evenodd" clip-rule="evenodd" fill="url(#SVGID_1_)" points="0,164.152 167.699,164.152 331.842,0 0,0 
		0,164.152 	"/>
	<path fill-rule="evenodd" clip-rule="evenodd" fill="#FFFFFF" d="M196.932,30.859l-32.663-0.008v77.656l-28.538-77.656H107.44
		L83.071,95.788c-2.58-16.365-19.521-22.032-32.853-26.271c-8.815-2.82-18.129-6.984-18.046-11.578
		c0.06-3.766,5.013-7.27,14.782-6.74c6.568,0.354,12.373,0.876,23.891,6.444l11.372-19.767c-10.539-5.361-25.086-8.736-37.003-8.756
		h-0.08c-13.899,0-25.49,4.516-32.666,11.932c-5.001,5.187-7.701,11.758-7.82,19.05C4.47,70.131,8.145,77.234,15.875,82.914
		c6.508,4.772,14.85,7.878,22.201,10.167c9.063,2.799,16.466,5.239,16.375,10.446c-0.04,1.899-0.77,3.661-2.135,5.093
		c-2.267,2.339-5.733,3.218-10.529,3.31c-9.264,0.186-16.124-1.263-27.049-7.719l-10.09,20.035
		c10.909,6.204,23.817,9.837,36.973,9.837l1.698-0.014c11.468-0.203,20.716-3.485,28.12-9.431c0.406-0.325,0.8-0.683,1.189-1.028
		l-3.268,8.759h29.662l4.983-15.146c5.213,1.759,11.14,2.756,17.437,2.756c6.121,0,11.91-0.938,17.031-2.616l4.796,15.007h48.383
		v-31.368h10.553c25.51,0,40.613-12.986,40.613-34.764C242.818,41.986,228.152,30.859,196.932,30.859z M121.442,97.325
		c-3.806,0-7.386-0.676-10.47-1.849l10.36-32.657h0.212l10.145,32.752C128.643,96.676,125.159,97.325,121.442,97.325z
		 M198.854,78.55h-7.201v-26.33h7.201c9.599,0,17.236,3.185,17.236,13.013C216.09,75.364,208.452,78.55,198.854,78.55"/>
	<path fill="#3261AD" d="M207.836,153.507c0-5.041,3.803-8.856,8.671-8.856c4.803,0,8.612,3.815,8.612,8.856
		c0,5.126-3.81,8.895-8.612,8.895C211.639,162.401,207.836,158.633,207.836,153.507z M216.507,164.179
		c5.79,0,10.751-4.518,10.751-10.672c0-6.114-4.961-10.62-10.751-10.62c-5.862,0-10.811,4.506-10.811,10.62
		C205.696,159.661,210.645,164.179,216.507,164.179z M214.248,154.346h2.14l3.232,5.315h2.093l-3.503-5.402
		c1.801-0.212,3.186-1.176,3.186-3.375c0-2.418-1.431-3.491-4.326-3.491h-4.676v12.269h1.854V154.346z M214.248,152.764v-3.791
		h2.544c1.271,0,2.644,0.271,2.644,1.799c0,1.895-1.398,1.992-2.955,1.992H214.248z"/>
</g>
</svg>
